<?xml version="1.0" standalone="no"?>
<!DOCTYPE svg PUBLIC "-//W3C//DTD SVG 20010904//EN"
 "http://www.w3.org/TR/2001/REC-SVG-20010904/DTD/svg10.dtd">
<svg version="1.0" xmlns="http://www.w3.org/2000/svg"
 width="229.000000pt" height="57.000000pt" viewBox="0 0 229.000000 57.000000"
 preserveAspectRatio="xMidYMid meet">

<g transform="translate(0.000000,57.000000) scale(0.100000,-0.100000)"
fill="#000000" stroke="none">
<path d="M815 558 c-2 -7 -18 -78 -36 -158 -32 -150 -72 -275 -94 -299 -26
-27 -50 12 -110 179 -64 178 -102 240 -149 240 -35 0 -69 -47 -96 -131 -26
-82 -54 -145 -78 -171 -17 -21 -53 -23 -70 -6 -9 9 -12 5 -12 -18 0 -38 16
-54 56 -54 46 0 94 57 133 159 17 46 31 86 31 90 0 4 9 16 20 26 31 28 41 12
110 -170 65 -171 100 -228 144 -233 51 -6 82 43 121 191 29 110 68 344 60 357
-9 14 -25 12 -30 -2z"/>
<path d="M1270 291 c0 -246 2 -281 15 -281 9 0 18 6 21 14 5 12 12 11 45 -6
57 -29 104 -20 150 30 66 70 65 179 -2 246 -39 38 -39 38 -109 34 l-69 -4 -3
121 c-3 116 -4 120 -25 123 l-23 3 0 -280z m195 -35 c91 -91 -20 -263 -119
-185 -25 19 -26 25 -26 109 0 99 -1 98 73 99 38 1 53 -4 72 -23z"/>
<path d="M1640 535 c-20 -25 -8 -50 25 -50 21 0 31 5 33 18 4 21 -14 47 -33
47 -7 0 -18 -7 -25 -15z"/>
<path d="M950 304 c-43 -37 -60 -75 -60 -134 0 -132 106 -204 224 -152 48 22
55 32 32 51 -10 8 -20 8 -42 -4 -49 -25 -92 -19 -130 19 -19 19 -34 43 -34 55
0 19 6 21 117 23 135 3 138 6 108 85 -22 58 -62 83 -132 83 -41 0 -58 -5 -83
-26z m124 -25 c14 -7 32 -26 40 -43 l15 -31 -91 -3 c-50 -1 -92 -1 -95 1 -9
10 23 59 46 72 32 17 53 18 85 4z"/>
<path d="M1647 324 c-4 -4 -7 -76 -7 -161 l0 -153 25 0 26 0 -3 157 c-3 133
-5 158 -18 161 -9 1 -19 0 -23 -4z"/>
<path d="M1805 308 c-3 -13 -4 -84 -3 -158 l3 -135 25 0 25 0 3 117 3 118 29
15 c40 21 86 19 110 -5 18 -18 20 -33 20 -135 l0 -115 25 0 25 0 0 114 c0 112
1 115 26 135 36 28 95 28 120 0 16 -18 20 -40 22 -135 4 -113 4 -114 28 -114
24 0 24 0 24 110 0 121 -12 166 -51 194 -34 23 -104 20 -151 -6 -26 -15 -41
-19 -46 -12 -23 36 -121 46 -161 18 -22 -16 -24 -16 -33 0 -13 23 -37 20 -43
-6z"/>
</g>
</svg>
